<svg width="803" height="307" viewBox="0 0 803 307" fill="none" xmlns="http://www.w3.org/2000/svg">
<path d="M232.792 173.348H261.7C271.92 173.348 277.03 178.166 277.03 187.802V193.277C277.03 195.759 275.862 197 273.526 197H210.016C208.118 197 207.169 196.051 207.169 194.153V78.083C207.169 76.185 208.118 75.236 210.016 75.236H212.206C219.068 75.236 224.178 76.915 227.536 80.273C231.04 83.485 232.792 89.179 232.792 97.355V173.348ZM287.715 91.661C287.715 87.573 289.029 84.215 291.657 81.587C294.431 78.813 297.789 77.426 301.731 77.426C305.527 77.426 308.666 78.813 311.148 81.587C313.776 84.215 315.09 87.573 315.09 91.661C315.09 95.749 313.776 99.107 311.148 101.735C308.666 104.363 305.527 105.677 301.731 105.677C297.789 105.677 294.431 104.363 291.657 101.735C289.029 99.107 287.715 95.749 287.715 91.661ZM289.029 194.153V116.189C289.029 114.291 289.978 113.342 291.876 113.342H292.971C299.833 113.342 305.016 114.948 308.52 118.16C312.17 121.372 313.995 126.92 313.995 134.804V194.153C313.995 196.051 313.046 197 311.148 197H291.876C289.978 197 289.029 196.051 289.029 194.153ZM356.982 187.583V194.153C356.982 196.051 356.033 197 354.135 197H334.863C332.965 197 332.016 196.051 332.016 194.153V78.083C332.016 76.185 332.965 75.236 334.863 75.236H335.958C342.82 75.236 348.003 76.842 351.507 80.054C355.157 83.266 356.982 88.814 356.982 96.698V122.759C359.172 119.401 362.311 116.554 366.399 114.218C370.487 111.882 375.524 110.714 381.51 110.714C393.19 110.714 402.388 114.656 409.104 122.54C415.966 130.424 419.397 141.082 419.397 154.514C419.397 162.69 417.937 170.136 415.017 176.852C412.243 183.568 408.082 188.97 402.534 193.058C396.986 197 390.051 198.971 381.729 198.971C376.619 198.971 371.947 197.949 367.713 195.905C363.479 193.861 359.902 191.087 356.982 187.583ZM374.94 175.538C376.984 175.538 379.393 175.1 382.167 174.224C385.087 173.202 387.642 171.231 389.832 168.311C392.168 165.245 393.336 160.719 393.336 154.733C393.336 148.747 392.168 144.367 389.832 141.593C387.642 138.819 385.087 137.067 382.167 136.337C379.247 135.461 376.838 135.023 374.94 135.023C373.042 135.023 370.633 135.461 367.713 136.337C364.939 137.067 362.457 138.819 360.267 141.593C358.077 144.367 356.982 148.747 356.982 154.733C356.982 160.719 358.077 165.245 360.267 168.311C362.457 171.231 364.939 173.202 367.713 174.224C370.633 175.1 373.042 175.538 374.94 175.538ZM458.329 125.387C460.957 120.715 463.804 117.576 466.87 115.97C470.082 114.218 474.827 113.342 481.105 113.342H483.733C485.631 113.342 486.58 114.291 486.58 116.189V133.928C486.58 135.826 485.631 136.775 483.733 136.775H477.382C471.98 136.775 467.965 137.724 465.337 139.622C462.855 141.374 461.249 144.002 460.519 147.506C459.789 150.864 459.424 154.952 459.424 159.77V194.153C459.424 196.051 458.475 197 456.577 197H437.305C435.407 197 434.458 196.051 434.458 194.153V116.189C434.458 114.291 435.407 113.342 437.305 113.342H438.4C443.802 113.342 448.109 114.291 451.321 116.189C454.679 118.087 457.015 121.153 458.329 125.387ZM557.759 187.583C554.985 191.087 551.481 193.861 547.247 195.905C543.013 197.949 538.341 198.971 533.231 198.971C524.909 198.971 517.974 197 512.426 193.058C506.878 188.97 502.644 183.568 499.724 176.852C496.95 170.136 495.563 162.69 495.563 154.514C495.563 146.338 497.096 138.965 500.162 132.395C503.228 125.679 507.608 120.423 513.302 116.627C518.996 112.685 525.785 110.714 533.669 110.714C540.385 110.714 545.86 111.882 550.094 114.218C554.474 116.554 557.905 119.109 560.387 121.883C561.993 118.817 564.329 116.627 567.395 115.313C570.607 113.999 574.476 113.342 579.002 113.342H580.097C581.995 113.342 582.944 114.291 582.944 116.189V194.153C582.944 196.051 581.995 197 580.097 197H560.606C558.708 197 557.759 196.051 557.759 194.153V187.583ZM540.02 175.538C541.918 175.538 544.254 175.1 547.028 174.224C549.802 173.202 552.284 171.231 554.474 168.311C556.664 165.245 557.759 160.719 557.759 154.733C557.759 148.747 556.664 144.367 554.474 141.593C552.43 138.819 550.021 137.067 547.247 136.337C544.473 135.461 542.064 135.023 540.02 135.023C538.122 135.023 535.713 135.461 532.793 136.337C529.873 137.067 527.245 138.819 524.909 141.593C522.573 144.367 521.405 148.747 521.405 154.733C521.405 160.719 522.5 165.245 524.69 168.311C527.026 171.231 529.654 173.202 532.574 174.224C535.64 175.1 538.122 175.538 540.02 175.538ZM624.504 125.387C627.132 120.715 629.979 117.576 633.045 115.97C636.257 114.218 641.002 113.342 647.28 113.342H649.908C651.806 113.342 652.755 114.291 652.755 116.189V133.928C652.755 135.826 651.806 136.775 649.908 136.775H643.557C638.155 136.775 634.14 137.724 631.512 139.622C629.03 141.374 627.424 144.002 626.694 147.506C625.964 150.864 625.599 154.952 625.599 159.77V194.153C625.599 196.051 624.65 197 622.752 197H603.48C601.582 197 600.633 196.051 600.633 194.153V116.189C600.633 114.291 601.582 113.342 603.48 113.342H604.575C609.977 113.342 614.284 114.291 617.496 116.189C620.854 118.087 623.19 121.153 624.504 125.387ZM664.549 91.661C664.549 87.573 665.863 84.215 668.491 81.587C671.265 78.813 674.623 77.426 678.565 77.426C682.361 77.426 685.5 78.813 687.982 81.587C690.61 84.215 691.924 87.573 691.924 91.661C691.924 95.749 690.61 99.107 687.982 101.735C685.5 104.363 682.361 105.677 678.565 105.677C674.623 105.677 671.265 104.363 668.491 101.735C665.863 99.107 664.549 95.749 664.549 91.661ZM665.863 194.153V116.189C665.863 114.291 666.812 113.342 668.71 113.342H669.805C676.667 113.342 681.85 114.948 685.354 118.16C689.004 121.372 690.829 126.92 690.829 134.804V194.153C690.829 196.051 689.88 197 687.982 197H668.71C666.812 197 665.863 196.051 665.863 194.153ZM768.418 187.583C765.644 191.087 762.14 193.861 757.906 195.905C753.672 197.949 749 198.971 743.89 198.971C735.568 198.971 728.633 197 723.085 193.058C717.537 188.97 713.303 183.568 710.383 176.852C707.609 170.136 706.222 162.69 706.222 154.514C706.222 146.338 707.755 138.965 710.821 132.395C713.887 125.679 718.267 120.423 723.961 116.627C729.655 112.685 736.444 110.714 744.328 110.714C751.044 110.714 756.519 111.882 760.753 114.218C765.133 116.554 768.564 119.109 771.046 121.883C772.652 118.817 774.988 116.627 778.054 115.313C781.266 113.999 785.135 113.342 789.661 113.342H790.756C792.654 113.342 793.603 114.291 793.603 116.189V194.153C793.603 196.051 792.654 197 790.756 197H771.265C769.367 197 768.418 196.051 768.418 194.153V187.583ZM750.679 175.538C752.577 175.538 754.913 175.1 757.687 174.224C760.461 173.202 762.943 171.231 765.133 168.311C767.323 165.245 768.418 160.719 768.418 154.733C768.418 148.747 767.323 144.367 765.133 141.593C763.089 138.819 760.68 137.067 757.906 136.337C755.132 135.461 752.723 135.023 750.679 135.023C748.781 135.023 746.372 135.461 743.452 136.337C740.532 137.067 737.904 138.819 735.568 141.593C733.232 144.367 732.064 148.747 732.064 154.733C732.064 160.719 733.159 165.245 735.349 168.311C737.685 171.231 740.313 173.202 743.233 174.224C746.299 175.1 748.781 175.538 750.679 175.538Z" fill="white"/>
<g clip-path="url(#clip0_2010_2)">
<path d="M17.4831 187.546C29.9705 188.689 42.8948 191.878 55.7643 197.112V210.574L2.98828 201.187V89.5591L17.4831 92.135V187.546ZM84.9681 212.937V215.768L74.3611 213.881V206.153C77.9184 208.171 81.4483 210.35 84.9472 212.689V212.965C84.9542 212.954 84.9612 212.947 84.9681 212.937Z" stroke="white" stroke-width="10" stroke-miterlimit="10" stroke-linecap="round" stroke-linejoin="round"/>
<path d="M85.3649 107.083V212.966L85.1663 212.931L85.0521 212.911L84.9927 212.901L84.9678 212.896L84.9478 212.891V107.58C84.9528 107.57 84.9628 107.56 84.9678 107.55V107.013L84.9976 107.018L85.0524 107.028L85.1666 107.048L85.3008 107.073L85.3649 107.083ZM27.8112 176.426C35.9938 176.25 45.8568 179.043 55.7646 184.805V197.113C42.8951 191.878 29.9704 188.689 17.4834 187.546V81.6661C20.8963 81.9759 24.3435 82.4444 27.8112 83.0643V176.426ZM84.9472 212.334V212.689C81.4482 210.35 77.9184 208.171 74.361 206.153V199.448C78.0838 203.267 81.6481 207.564 84.9472 212.334Z" stroke="white" stroke-width="10" stroke-miterlimit="10" stroke-linecap="round" stroke-linejoin="round"/>
<path d="M85.3649 107.083V212.966C85.335 212.946 85.3101 212.926 85.2806 212.911C85.241 212.881 85.2062 212.856 85.1663 212.831C85.1365 212.811 85.1069 212.792 85.0767 212.776C85.0418 212.746 85.0023 212.721 84.9674 212.702C84.9625 212.697 84.9525 212.692 84.9475 212.687V107.58C84.9525 107.57 84.9625 107.56 84.9674 107.55V106.978C84.9027 106.879 84.8383 106.78 84.7639 106.685C84.8336 106.725 84.8977 106.77 84.9674 106.819C85.0319 106.859 85.1013 106.903 85.166 106.948C85.2055 106.973 85.2404 106.998 85.2802 107.028C85.2902 107.033 85.3051 107.043 85.3151 107.048C85.3304 107.063 85.3503 107.073 85.3649 107.083Z" stroke="white" stroke-width="10" stroke-miterlimit="10" stroke-linecap="round" stroke-linejoin="round"/>
<path d="M84.968 106.978V107.55C84.9611 107.56 84.9544 107.57 84.9475 107.58V212.334C81.6484 207.564 78.084 203.267 74.3613 199.447C68.4276 193.358 62.0874 188.475 55.7649 184.804C45.8571 179.043 35.9941 176.25 27.8115 176.425V71.0384C43.7321 70.7044 66.0204 81.6007 82.6299 103.724C83.353 104.688 84.0692 105.676 84.7652 106.685C84.8369 106.782 84.9026 106.878 84.968 106.978Z" stroke="white" stroke-width="10" stroke-miterlimit="10" stroke-linecap="round" stroke-linejoin="round"/>
<path d="M85.385 107.58V212.965C85.3801 212.955 85.3701 212.945 85.3651 212.935C85.3552 212.925 85.3502 212.91 85.3402 212.9C85.3103 212.861 85.2854 212.816 85.2559 212.776C85.226 212.731 85.1964 212.692 85.1662 212.652C85.1015 212.553 85.0371 212.458 84.9677 212.364C84.9677 212.354 84.9577 212.344 84.9478 212.334V107.58C84.9527 107.57 84.9627 107.56 84.9677 107.55V106.978C84.9826 106.993 84.9926 107.003 84.9976 107.018C85.0075 107.028 85.0125 107.038 85.0175 107.048C85.0274 107.058 85.0324 107.063 85.0324 107.073C85.0819 107.138 85.1267 107.202 85.1662 107.267C85.236 107.361 85.3 107.455 85.3648 107.55C85.3698 107.56 85.3797 107.57 85.385 107.58Z" stroke="white" stroke-width="10" stroke-miterlimit="10" stroke-linecap="round" stroke-linejoin="round"/>
<path d="M167.344 89.5578V201.188L85.365 215.767V212.936C85.37 212.946 85.3799 212.956 85.3849 212.966V212.687C107.431 197.949 130.823 189.564 152.849 187.547V92.1357L167.344 89.5578Z" stroke="white" stroke-width="10" stroke-miterlimit="10" stroke-linecap="round" stroke-linejoin="round"/>
<path d="M85.385 107.58V212.891L85.3651 212.896L85.3402 212.901L85.2808 212.911L85.1666 212.931L84.968 212.966V107.083L85.0324 107.073L85.1662 107.048L85.2805 107.028L85.3352 107.018L85.3651 107.013V107.55C85.3698 107.56 85.3797 107.57 85.385 107.58Z" stroke="white" stroke-width="10" stroke-miterlimit="10" stroke-linecap="round" stroke-linejoin="round"/>
<path d="M152.849 81.6644V187.547C130.823 189.564 107.431 197.949 85.3848 212.687V212.335C102.185 188.039 125.845 176.072 142.521 176.424V83.0653C145.988 82.4444 149.436 81.9772 152.849 81.6644Z" stroke="white" stroke-width="10" stroke-miterlimit="10" stroke-linecap="round" stroke-linejoin="round"/>
<path d="M85.365 107.55C85.37 107.56 85.3799 107.57 85.3849 107.58V212.687C85.3799 212.692 85.37 212.697 85.365 212.702C85.3301 212.722 85.2906 212.747 85.2557 212.776C85.2258 212.791 85.1963 212.811 85.1661 212.831C85.1266 212.856 85.0917 212.881 85.0519 212.911C85.022 212.926 84.9971 212.946 84.9675 212.966V107.083C84.9825 107.073 85.0024 107.063 85.017 107.048C85.027 107.043 85.0419 107.033 85.0519 107.028C85.0914 106.998 85.1262 106.973 85.1661 106.949C85.2308 106.904 85.2999 106.859 85.3646 106.819C85.4344 106.77 85.4988 106.725 85.5682 106.686C85.4938 106.78 85.4291 106.879 85.3646 106.979V107.55H85.365Z" stroke="white" stroke-width="10" stroke-miterlimit="10" stroke-linecap="round" stroke-linejoin="round"/>
<path d="M142.521 71.0388V176.424C125.845 176.072 102.185 188.038 85.3848 212.334V107.58C85.3798 107.57 85.3699 107.56 85.3649 107.55V106.978C85.4296 106.879 85.4941 106.78 85.5684 106.685C86.269 105.677 86.9792 104.688 87.7094 103.725C104.316 81.6 126.601 70.7061 142.521 71.0388ZM74.3611 199.448V235.301L65.0629 226.003L55.7646 235.301V184.804C62.0875 188.476 68.4273 193.359 74.3611 199.448Z" stroke="white" stroke-width="10" stroke-miterlimit="10" stroke-linecap="round" stroke-linejoin="round"/>
</g>
<defs>
<clipPath id="clip0_2010_2">
<rect width="170" height="170" fill="white" transform="translate(0 68)"/>
</clipPath>
</defs>
</svg>
