<svg width="928" height="219" viewBox="0 0 928 219" fill="none" xmlns="http://www.w3.org/2000/svg">
<path d="M219.214 74.74C219.214 67.294 218.192 61.819 216.148 58.315C214.104 54.665 210.016 52.84 203.884 52.84H199.504V48.46H219.214C224.616 48.46 228.631 49.19 231.259 50.65C234.033 51.964 236.004 54.446 237.172 58.096C238.34 61.746 238.924 67.294 238.924 74.74V184.24H316.669V193H219.214V74.74ZM345.493 76.93C342.135 76.93 339.215 75.543 336.733 72.769C334.397 69.995 333.229 66.71 333.229 62.914C333.229 59.848 334.105 57.439 335.857 55.687C337.755 53.935 340.237 53.059 343.303 53.059C346.661 53.059 349.508 54.446 351.844 57.22C354.326 59.994 355.567 63.279 355.567 67.075C355.567 70.141 354.618 72.55 352.72 74.302C350.968 76.054 348.559 76.93 345.493 76.93ZM337.171 116.35C337.171 108.904 336.149 103.429 334.105 99.925C332.061 96.275 327.973 94.45 321.841 94.45H317.461V90.07H337.171C342.573 90.07 346.588 90.8 349.216 92.26C351.99 93.574 353.961 96.056 355.129 99.706C356.297 103.356 356.881 108.904 356.881 116.35V193H337.171V116.35ZM439.408 195.19C431.962 195.19 425.83 194.022 421.012 191.686C416.194 189.35 412.471 186.503 409.843 183.145H408.748L401.083 193H390.133V74.74C390.133 67.294 389.111 61.819 387.067 58.315C385.023 54.665 380.935 52.84 374.803 52.84H370.423V48.46H390.133C395.535 48.46 399.55 49.19 402.178 50.65C404.952 51.964 406.923 54.446 408.091 58.096C409.259 61.746 409.843 67.294 409.843 74.74V94.45C414.077 92.406 418.311 90.8 422.545 89.632C426.779 88.464 431.67 87.88 437.218 87.88C450.796 87.88 461.089 92.917 468.097 102.991C475.251 113.065 478.828 125.913 478.828 141.535C478.828 157.011 475.397 169.859 468.535 180.079C461.673 190.153 451.964 195.19 439.408 195.19ZM432.838 186.43C441.16 186.43 447.438 182.342 451.672 174.166C455.906 165.844 458.023 154.967 458.023 141.535C458.023 127.957 455.76 117.08 451.234 108.904C446.854 100.728 439.992 96.64 430.648 96.64C427.582 96.64 424.443 97.224 421.231 98.392C418.019 99.56 414.223 101.166 409.843 103.21V173.29C412.471 177.232 415.537 180.444 419.041 182.926C422.691 185.262 427.29 186.43 432.838 186.43ZM506.518 116.35C506.518 108.904 505.496 103.429 503.452 99.925C501.408 96.275 497.32 94.45 491.188 94.45H488.998V90.07H506.518C512.066 90.07 516.227 90.873 519.001 92.479C521.921 93.939 523.965 96.421 525.133 99.925H526.228C528.856 96.567 532.36 93.72 536.74 91.384C541.266 89.048 546.522 87.88 552.508 87.88C558.348 87.88 562.728 88.975 565.648 91.165C568.13 93.063 570.685 96.348 573.313 101.02L564.553 107.59C562.947 105.4 560.611 103.794 557.545 102.772C554.479 101.604 550.975 101.02 547.033 101.02C542.653 101.02 538.638 102.042 534.988 104.086C531.338 105.984 528.418 108.612 526.228 111.97V193H506.518V116.35ZM616.338 195.19C611.666 195.19 606.921 194.241 602.103 192.343C597.285 190.299 593.124 187.014 589.62 182.488C586.262 177.962 584.583 171.976 584.583 164.53C584.583 153.434 589.693 145.55 599.913 140.878C610.279 136.206 623.784 133.87 640.428 133.87H646.998C646.998 119.562 645.027 109.78 641.085 104.524C637.143 99.268 631.449 96.64 624.003 96.64C617.433 96.64 612.177 98.027 608.235 100.801C604.293 103.575 601.519 108.393 599.913 115.255H590.058C590.058 110.291 590.35 106.422 590.934 103.648C591.518 100.728 593.051 98.027 595.533 95.545C598.161 92.917 602.468 91.019 608.454 89.851C614.586 88.537 621.229 87.88 628.383 87.88C640.209 87.88 649.553 91.092 656.415 97.516C663.277 103.794 666.708 115.912 666.708 133.87V193H655.758L648.093 183.145H646.998C644.37 186.503 640.501 189.35 635.391 191.686C630.281 194.022 623.93 195.19 616.338 195.19ZM626.193 185.335C631.011 185.335 635.026 184.167 638.238 181.831C641.45 179.495 644.37 176.283 646.998 172.195V142.63H640.428C629.624 142.63 621.083 144.674 614.805 148.762C608.527 152.704 605.388 157.96 605.388 164.53C605.388 171.246 607.359 176.429 611.301 180.079C615.389 183.583 620.353 185.335 626.193 185.335ZM698.999 116.35C698.999 108.904 697.977 103.429 695.933 99.925C693.889 96.275 689.801 94.45 683.669 94.45H681.479V90.07H698.999C704.547 90.07 708.708 90.873 711.482 92.479C714.402 93.939 716.446 96.421 717.614 99.925H718.709C721.337 96.567 724.841 93.72 729.221 91.384C733.747 89.048 739.003 87.88 744.989 87.88C750.829 87.88 755.209 88.975 758.129 91.165C760.611 93.063 763.166 96.348 765.794 101.02L757.034 107.59C755.428 105.4 753.092 103.794 750.026 102.772C746.96 101.604 743.456 101.02 739.514 101.02C735.134 101.02 731.119 102.042 727.469 104.086C723.819 105.984 720.899 108.612 718.709 111.97V193H698.999V116.35ZM795.897 76.93C792.539 76.93 789.619 75.543 787.137 72.769C784.801 69.995 783.633 66.71 783.633 62.914C783.633 59.848 784.509 57.439 786.261 55.687C788.159 53.935 790.641 53.059 793.707 53.059C797.065 53.059 799.912 54.446 802.248 57.22C804.73 59.994 805.971 63.279 805.971 67.075C805.971 70.141 805.022 72.55 803.124 74.302C801.372 76.054 798.963 76.93 795.897 76.93ZM787.575 116.35C787.575 108.904 786.553 103.429 784.509 99.925C782.465 96.275 778.377 94.45 772.245 94.45H767.865V90.07H787.575C792.977 90.07 796.992 90.8 799.62 92.26C802.394 93.574 804.365 96.056 805.533 99.706C806.701 103.356 807.285 108.904 807.285 116.35V193H787.575V116.35ZM862.713 195.19C858.041 195.19 853.296 194.241 848.478 192.343C843.66 190.299 839.499 187.014 835.995 182.488C832.637 177.962 830.958 171.976 830.958 164.53C830.958 153.434 836.068 145.55 846.288 140.878C856.654 136.206 870.159 133.87 886.803 133.87H893.373C893.373 119.562 891.402 109.78 887.46 104.524C883.518 99.268 877.824 96.64 870.378 96.64C863.808 96.64 858.552 98.027 854.61 100.801C850.668 103.575 847.894 108.393 846.288 115.255H836.433C836.433 110.291 836.725 106.422 837.309 103.648C837.893 100.728 839.426 98.027 841.908 95.545C844.536 92.917 848.843 91.019 854.829 89.851C860.961 88.537 867.604 87.88 874.758 87.88C886.584 87.88 895.928 91.092 902.79 97.516C909.652 103.794 913.083 115.912 913.083 133.87V193H902.133L894.468 183.145H893.373C890.745 186.503 886.876 189.35 881.766 191.686C876.656 194.022 870.305 195.19 862.713 195.19ZM872.568 185.335C877.386 185.335 881.401 184.167 884.613 181.831C887.825 179.495 890.745 176.283 893.373 172.195V142.63H886.803C875.999 142.63 867.458 144.674 861.18 148.762C854.902 152.704 851.763 157.96 851.763 164.53C851.763 171.246 853.734 176.429 857.676 180.079C861.764 183.583 866.728 185.335 872.568 185.335Z" fill="white"/>
<g clip-path="url(#clip0_2011_10)">
<path d="M17.4831 168.546C29.9705 169.689 42.8948 172.878 55.7643 178.112V191.574L2.98828 182.187V70.5591L17.4831 73.135V168.546ZM84.9681 193.937V196.768L74.3611 194.881V187.153C77.9184 189.171 81.4483 191.35 84.9472 193.689V193.965C84.9542 193.954 84.9612 193.947 84.9681 193.937Z" stroke="white" stroke-width="10" stroke-miterlimit="10" stroke-linecap="round" stroke-linejoin="round"/>
<path d="M85.3649 88.0831V193.966L85.1663 193.931L85.0521 193.911L84.9927 193.901L84.9678 193.896L84.9478 193.891V88.5798C84.9528 88.5698 84.9628 88.5599 84.9678 88.5499V88.0133L84.9976 88.0183L85.0524 88.0283L85.1666 88.0482L85.3008 88.0731L85.3649 88.0831ZM27.8112 157.426C35.9938 157.25 45.8568 160.043 55.7646 165.805V178.113C42.8951 172.878 29.9704 169.689 17.4834 168.546V62.6661C20.8963 62.9759 24.3435 63.4444 27.8112 64.0643V157.426ZM84.9472 193.334V193.689C81.4482 191.35 77.9184 189.171 74.361 187.153V180.448C78.0838 184.267 81.6481 188.564 84.9472 193.334Z" stroke="white" stroke-width="10" stroke-miterlimit="10" stroke-linecap="round" stroke-linejoin="round"/>
<path d="M85.3649 88.0831V193.966C85.335 193.946 85.3101 193.926 85.2806 193.911C85.241 193.881 85.2062 193.856 85.1663 193.831C85.1365 193.811 85.1069 193.792 85.0767 193.776C85.0418 193.746 85.0023 193.721 84.9674 193.702C84.9625 193.697 84.9525 193.692 84.9475 193.687V88.5798C84.9525 88.5698 84.9625 88.5599 84.9674 88.5499V87.9785C84.9027 87.8789 84.8383 87.7799 84.7639 87.6853C84.8336 87.7248 84.8977 87.7696 84.9674 87.8191C85.0319 87.8586 85.1013 87.9034 85.166 87.9483C85.2055 87.9732 85.2404 87.9977 85.2802 88.028C85.2902 88.0329 85.3051 88.0429 85.3151 88.0479C85.3304 88.0635 85.3503 88.0734 85.3649 88.0831Z" stroke="white" stroke-width="10" stroke-miterlimit="10" stroke-linecap="round" stroke-linejoin="round"/>
<path d="M84.968 87.9778V88.5496C84.9611 88.5599 84.9544 88.5702 84.9475 88.5805V193.334C81.6484 188.564 78.084 184.267 74.3613 180.447C68.4276 174.358 62.0874 169.475 55.7649 165.804C45.8571 160.043 35.9941 157.25 27.8115 157.425V52.0384C43.7321 51.7044 66.0204 62.6007 82.6299 84.7236C83.353 85.6878 84.0692 86.6763 84.7652 87.6853C84.8369 87.7816 84.9026 87.8782 84.968 87.9778Z" stroke="white" stroke-width="10" stroke-miterlimit="10" stroke-linecap="round" stroke-linejoin="round"/>
<path d="M85.385 88.5798V193.965C85.3801 193.955 85.3701 193.945 85.3651 193.935C85.3552 193.925 85.3502 193.91 85.3402 193.9C85.3103 193.861 85.2854 193.816 85.2559 193.776C85.226 193.731 85.1964 193.692 85.1662 193.652C85.1015 193.553 85.0371 193.458 84.9677 193.364C84.9677 193.354 84.9577 193.344 84.9478 193.334V88.5798C84.9527 88.5698 84.9627 88.5599 84.9677 88.5499V87.9785C84.9826 87.9934 84.9926 88.0034 84.9976 88.018C85.0075 88.028 85.0125 88.0379 85.0175 88.0479C85.0274 88.0578 85.0324 88.0628 85.0324 88.0728C85.0819 88.1375 85.1267 88.2019 85.1662 88.2667C85.236 88.361 85.3 88.4553 85.3648 88.5499C85.3698 88.5599 85.3797 88.5698 85.385 88.5798Z" stroke="white" stroke-width="10" stroke-miterlimit="10" stroke-linecap="round" stroke-linejoin="round"/>
<path d="M167.344 70.5578V182.188L85.365 196.767V193.936C85.37 193.946 85.3799 193.956 85.3849 193.966V193.687C107.431 178.949 130.823 170.564 152.849 168.547V73.1357L167.344 70.5578Z" stroke="white" stroke-width="10" stroke-miterlimit="10" stroke-linecap="round" stroke-linejoin="round"/>
<path d="M85.385 88.5798V193.891L85.3651 193.896L85.3402 193.901L85.2808 193.911L85.1666 193.931L84.968 193.966V88.0831L85.0324 88.0731L85.1662 88.0482L85.2805 88.0283L85.3352 88.0183L85.3651 88.0133V88.5499C85.3698 88.5599 85.3797 88.5698 85.385 88.5798Z" stroke="white" stroke-width="10" stroke-miterlimit="10" stroke-linecap="round" stroke-linejoin="round"/>
<path d="M152.849 62.6644V168.547C130.823 170.564 107.431 178.949 85.3848 193.687V193.335C102.185 169.039 125.845 157.072 142.521 157.424V64.0653C145.988 63.4444 149.436 62.9772 152.849 62.6644Z" stroke="white" stroke-width="10" stroke-miterlimit="10" stroke-linecap="round" stroke-linejoin="round"/>
<path d="M85.365 88.5499C85.37 88.5599 85.3799 88.5698 85.3849 88.5798V193.687C85.3799 193.692 85.37 193.697 85.365 193.702C85.3301 193.722 85.2906 193.747 85.2557 193.776C85.2258 193.791 85.1963 193.811 85.1661 193.831C85.1266 193.856 85.0917 193.881 85.0519 193.911C85.022 193.926 84.9971 193.946 84.9675 193.966V88.0831C84.9825 88.0731 85.0024 88.0631 85.017 88.0482C85.027 88.0432 85.0419 88.0333 85.0519 88.0283C85.0914 87.9984 85.1262 87.9735 85.1661 87.9486C85.2308 87.9038 85.2999 87.8589 85.3646 87.8194C85.4344 87.77 85.4988 87.7251 85.5682 87.6856C85.4938 87.7799 85.4291 87.8792 85.3646 87.9788V88.5499H85.365Z" stroke="white" stroke-width="10" stroke-miterlimit="10" stroke-linecap="round" stroke-linejoin="round"/>
<path d="M142.521 52.0388V157.424C125.845 157.072 102.185 169.038 85.3848 193.334V88.5798C85.3798 88.5698 85.3699 88.5599 85.3649 88.5499V87.9785C85.4296 87.8789 85.4941 87.7799 85.5684 87.6853C86.269 86.6769 86.9792 85.6881 87.7094 84.7246C104.316 62.6 126.601 51.7061 142.521 52.0388ZM74.3611 180.448V216.301L65.0629 207.003L55.7646 216.301V165.804C62.0875 169.476 68.4273 174.359 74.3611 180.448Z" stroke="white" stroke-width="10" stroke-miterlimit="10" stroke-linecap="round" stroke-linejoin="round"/>
</g>
<defs>
<clipPath id="clip0_2011_10">
<rect width="170" height="170" fill="white" transform="translate(0 49)"/>
</clipPath>
</defs>
</svg>
